<?xml version="1.0" encoding="UTF-8"?>
<svg id="Camada_2" data-name="Camada 2" xmlns="http://www.w3.org/2000/svg" viewBox="0 0 325 352.06">
  <defs>
    <style>
      .cls-1 {
        fill: #b597ff;
      }

      .cls-2 {
        opacity: .25;
      }

      .cls-3 {
        fill: #38e3ff;
      }

      .cls-4 {
        opacity: .5;
      }
    </style>
  </defs>
  <g id="LOGO">
    <g>
      <path class="cls-3" d="M234.88,231.02c-.07.96-.19,3.37-.3,5.32-.1,1.96-.22,4-.3,4.56-.06.56-.17,1.88-.24,2.96-.06,1.07-.18,2.42-.25,3.02-.06.58-.18,2.02-.28,3.19s-.22,2.45-.3,2.84c-.07.39-.2,1.48-.3,2.43-.18,1.92-.61,5.55-.71,6.09-.04.18-.17,1.1-.3,2-.59,4.14-1.24,8.2-1.35,8.46-.04.1-.14.65-.24,1.24-.38,2.31-1.42,7.19-1.97,9.26-.35,1.33-1.19,3.69-1.41,3.99-.05.06-.16.35-.28.63-.1.28-.38.81-.6,1.16-.22.35-.42.68-.42.73s-.2.34-.45.67c-.24.32-.52.72-.63.89-.32.48-1.64,1.9-2.58,2.77-.84.76-1.27,1.09-2.19,1.67-.2.12-.43.3-.52.38-.26.26-3.49,1.79-4.46,2.11-.39.14-.79.27-1.18.42-.32.14-2.09.59-4.14,1.05-.91.21-1.85.43-2.08.5-.54.14-3.97.83-6.56,1.3-2.37.43-6.51,1.07-9.53,1.45-.82.11-2.05.27-2.77.38-2.53.35-9.97,1.07-15.03,1.46-3.95.3-4.88.36-7.39.48-1.47.06-3.51.16-4.56.23-8.3.48-32.38.48-40.81,0-1.04-.06-3.09-.17-4.56-.23-1.47-.07-3.32-.18-4.14-.24-5.45-.39-6.58-.49-7.69-.6-.68-.07-2.33-.22-3.66-.35-3.71-.36-9.63-1.04-11.06-1.29-.39-.07-1.27-.2-1.96-.3-1.82-.26-4.72-.72-6.21-.99-2.59-.47-6.02-1.16-6.57-1.3-.22-.06-1.15-.29-2.07-.5-2.09-.47-3.83-.91-4.14-1.05-.13-.06-.45-.17-.71-.25-1.4-.42-4.64-1.96-5.11-2.41-.1-.1-.21-.18-.26-.18-.06,0-.29-.14-.52-.33-.22-.18-.57-.43-.75-.55-1.07-.76-2.99-2.73-3.67-3.73-.15-.22-.45-.65-.65-.95-.21-.3-.68-1.12-1.05-1.83-1.34-2.57-1.84-4.13-2.97-9.35-.33-1.49-.79-3.84-.99-5.03-.1-.55-.26-1.43-.35-1.95-.44-2.32-.84-4.85-1.19-7.45-.1-.72-.26-1.84-.35-2.49-.19-1.22-.42-3.06-.71-5.85-.09-.88-.22-2.03-.29-2.56-.06-.53-.2-1.92-.3-3.08-.1-1.15-.24-2.54-.3-3.06-.1-.85-.32-3.54-.59-7.63-.06-.82-.15-2.65-.22-4.08-.07-1.43-.19-3.34-.25-4.26-.17-2.25-.34-8.69-.43-15.91-.08-5.78.07-16.4.3-21.35.3-6.69.92-16.17,1.17-18.34.07-.59.22-2.02.31-3.19.1-1.17.21-2.32.25-2.54.02-.23.15-1.38.28-2.55.26-2.38.55-4.74,1-7.98.47-3.35,1.19-7.96,1.36-8.64.06-.22.15-.82.22-1.3.09-.49.22-1.24.3-1.66.1-.43.26-1.19.36-1.72.63-3.1,1.5-6.88,1.7-7.33.06-.14.25-.67.44-1.19,1.15-3.36,3.46-6.74,6.04-8.84,2.65-2.17,6.09-3.83,9.56-4.66.07,0,.63-.14,1.24-.28.62-.14,1.55-.37,2.07-.5,1.88-.45,5.2-1.12,7.16-1.46.55-.09,1.43-.26,1.95-.35.52-.1,1.32-.23,1.78-.3.46-.07,1.28-.2,1.83-.3,2.64-.45,8.91-1.24,13.13-1.65,1.01-.1,2.37-.22,3.02-.3,2.59-.26,6.26-.55,9.64-.75,7.28-.45,11.26-.64,16.68-.77,9.01-.22,23.54-.12,31.4.22,4.07.18,11.43.6,14.08.83.78.06,2.05.17,2.84.22.78.07,1.95.18,2.6.25.65.06,1.99.2,2.96.3,3.49.34,5.2.52,5.56.59.2.04,1.16.18,2.13.29,4.84.62,12.26,1.83,14.55,2.38.53.12,1.07.23,1.6.34,1.88.38,2.76.58,3.19.71.63.16,1.27.32,1.89.47,3.67.9,6.51,2.18,9.06,4.06,1.29.95,3.45,3.2,4.28,4.46.41.62.79,1.17.83,1.24.33.47,1.64,3.38,1.9,4.26.08.26.19.58.25.71.13.27.52,1.8.85,3.31.14.58.34,1.53.47,2.13.92,4.2,2,10.37,2.58,14.79.13.97.26,1.92.3,2.09.08.37.46,3.49.77,6.31.13,1.17.26,2.26.29,2.43.04.17.14,1.23.24,2.37.1,1.13.2,2.29.23,2.54.04.26.17,1.88.3,3.61.14,1.72.29,3.82.36,4.68.06.83.16,2.68.23,4.08.07,1.4.18,3.37.24,4.37.53,8.88.53,31.44,0,40.05Z"/>
      <g class="cls-2">
        <path class="cls-3" d="M281.74,241.07c-.11,1.44-.29,5.05-.45,7.98-.14,2.94-.34,6-.44,6.83-.1.84-.25,2.83-.36,4.44-.1,1.61-.26,3.63-.37,4.52-.08.87-.28,3.03-.42,4.79s-.34,3.68-.45,4.26c-.11.59-.3,2.23-.45,3.64-.28,2.87-.91,8.32-1.06,9.14-.06.28-.25,1.65-.45,3.01-.89,6.21-1.86,12.29-2.02,12.69-.06.14-.22.97-.36,1.86-.57,3.46-2.13,10.79-2.96,13.89-.53,2-1.78,5.53-2.12,5.98-.07.08-.24.53-.42.94-.16.42-.57,1.21-.9,1.74-.34.53-.63,1.02-.63,1.09s-.3.52-.67,1.01c-.36.48-.78,1.08-.94,1.34-.48.72-2.45,2.85-3.87,4.15-1.26,1.14-1.9,1.64-3.28,2.5-.3.18-.65.45-.78.57-.4.4-5.23,2.68-6.69,3.16-.59.2-1.18.41-1.77.63-.48.2-3.14.88-6.21,1.58-1.37.31-2.78.65-3.12.75-.81.2-5.95,1.24-9.84,1.95-3.55.65-9.77,1.6-14.29,2.18-1.23.17-3.08.41-4.16.58-3.79.53-14.95,1.61-22.54,2.19-5.92.45-7.31.54-11.09.72-2.2.1-5.27.24-6.83.35-12.45.72-48.57.72-61.21,0-1.56-.08-4.63-.25-6.83-.35-2.2-.11-4.98-.28-6.21-.36-8.17-.59-9.86-.73-11.54-.9-1.02-.11-3.49-.34-5.5-.53-5.57-.54-14.45-1.56-16.59-1.94-.59-.11-1.9-.3-2.94-.45-2.73-.4-7.07-1.08-9.31-1.49-3.89-.71-9.03-1.74-9.85-1.95-.34-.1-1.73-.43-3.1-.75-3.14-.71-5.75-1.37-6.21-1.58-.19-.1-.67-.25-1.07-.37-2.09-.63-6.96-2.95-7.66-3.62-.14-.14-.31-.28-.38-.28-.1,0-.43-.2-.78-.49-.34-.26-.85-.64-1.12-.83-1.6-1.14-4.49-4.09-5.51-5.59-.23-.34-.67-.97-.97-1.42-.31-.45-1.02-1.68-1.58-2.74-2.01-3.86-2.75-6.19-4.45-14.03-.49-2.24-1.19-5.76-1.49-7.54-.16-.83-.4-2.14-.53-2.92-.66-3.48-1.26-7.28-1.78-11.17-.14-1.08-.38-2.75-.53-3.73-.29-1.83-.63-4.58-1.07-8.78-.13-1.32-.34-3.04-.43-3.84-.1-.79-.3-2.87-.45-4.62-.14-1.73-.36-3.81-.45-4.6-.16-1.28-.48-5.3-.89-11.44-.08-1.23-.23-3.97-.34-6.12-.11-2.14-.29-5.02-.37-6.39-.25-3.37-.52-13.04-.64-23.87-.12-8.67.11-24.6.46-32.02.46-10.03,1.38-24.25,1.76-27.51.11-.89.32-3.03.47-4.79.16-1.76.31-3.48.37-3.81.04-.35.23-2.07.42-3.83.38-3.57.83-7.11,1.5-11.97.7-5.03,1.78-11.94,2.04-12.96.08-.34.23-1.23.34-1.95.13-.73.32-1.85.46-2.49.14-.64.4-1.79.54-2.57.94-4.64,2.25-10.32,2.55-10.99.08-.2.37-1,.66-1.78,1.73-5.04,5.2-10.12,9.06-13.26,3.98-3.25,9.14-5.75,14.34-6.99.11-.01.94-.22,1.86-.42.93-.22,2.32-.55,3.1-.75,2.83-.67,7.81-1.68,10.74-2.19.83-.13,2.14-.38,2.92-.53.78-.14,1.98-.35,2.67-.45.69-.11,1.91-.3,2.74-.45,3.96-.67,13.36-1.86,19.69-2.48,1.52-.14,3.55-.34,4.53-.45,3.89-.38,9.39-.83,14.46-1.13,10.92-.67,16.89-.96,25.02-1.15,13.52-.34,35.3-.18,47.1.34,6.11.26,17.14.9,21.12,1.24,1.17.08,3.08.25,4.26.34,1.17.11,2.92.26,3.9.37.97.08,2.98.3,4.44.45,5.23.52,7.81.78,8.34.89.3.06,1.74.26,3.2.43,7.25.93,18.39,2.74,21.82,3.57.79.18,1.6.35,2.39.52,2.83.58,4.14.87,4.79,1.06.95.24,1.9.48,2.84.71,5.51,1.35,9.77,3.27,13.59,6.09,1.94,1.42,5.17,4.8,6.42,6.69.61.93,1.18,1.76,1.25,1.86.49.7,2.47,5.08,2.85,6.39.12.4.29.87.37,1.07.19.41.78,2.69,1.28,4.97.2.87.52,2.3.71,3.19,1.38,6.3,3,15.55,3.87,22.18.19,1.46.38,2.87.45,3.13.12.55.69,5.23,1.15,9.47.19,1.76.38,3.39.43,3.64.06.25.22,1.84.36,3.55.14,1.7.3,3.43.35,3.81.06.38.25,2.83.45,5.41.2,2.59.43,5.73.54,7.01.08,1.25.24,4.02.35,6.12.11,2.09.26,5.05.36,6.56.79,13.32.79,47.17,0,60.07Z"/>
      </g>
      <g class="cls-4">
        <path class="cls-3" d="M258.31,236.04c-.09,1.2-.24,4.21-.37,6.65-.12,2.45-.28,5-.37,5.69-.08.7-.21,2.36-.3,3.7-.08,1.34-.22,3.03-.31,3.77-.07.72-.23,2.53-.35,3.99s-.28,3.07-.37,3.55c-.09.49-.25,1.85-.37,3.04-.23,2.4-.76,6.94-.88,7.62-.05.23-.21,1.37-.37,2.51-.74,5.17-1.55,10.24-1.68,10.58-.05.12-.18.81-.3,1.55-.47,2.89-1.77,8.99-2.47,11.58-.44,1.66-1.48,4.61-1.76,4.98-.06.07-.2.44-.35.78-.13.35-.47,1.01-.75,1.45-.28.44-.52.85-.52.91s-.25.43-.56.84c-.3.4-.65.9-.78,1.11-.4.6-2.04,2.38-3.23,3.46-1.05.95-1.58,1.36-2.74,2.09-.25.15-.54.37-.65.47-.33.33-4.36,2.24-5.57,2.64-.49.17-.98.34-1.47.52-.4.17-2.62.73-5.17,1.31-1.14.26-2.32.54-2.6.62-.67.17-4.96,1.03-8.2,1.62-2.96.54-8.14,1.33-11.91,1.81-1.02.14-2.57.34-3.47.48-3.16.44-12.46,1.34-18.79,1.82-4.93.37-6.09.45-9.24.6-1.83.08-4.39.2-5.69.29-10.38.6-40.48.6-51.01,0-1.3-.07-3.86-.21-5.69-.29-1.83-.09-4.15-.23-5.17-.3-6.81-.49-8.22-.61-9.61-.75-.85-.09-2.91-.28-4.58-.44-4.64-.45-12.04-1.3-13.82-1.61-.49-.09-1.58-.25-2.45-.37-2.28-.33-5.89-.9-7.76-1.24-3.24-.59-7.53-1.45-8.21-1.62-.28-.08-1.44-.36-2.59-.62-2.62-.59-4.79-1.14-5.17-1.31-.16-.08-.56-.21-.89-.31-1.74-.52-5.8-2.46-6.39-3.02-.12-.12-.26-.23-.32-.23-.08,0-.36-.17-.65-.41-.28-.22-.71-.53-.93-.69-1.33-.95-3.74-3.41-4.59-4.66-.19-.28-.56-.81-.81-1.18-.26-.37-.85-1.4-1.31-2.29-1.67-3.22-2.3-5.16-3.71-11.69-.41-1.86-.99-4.8-1.24-6.29-.13-.69-.33-1.78-.44-2.44-.55-2.9-1.05-6.06-1.48-9.31-.12-.9-.32-2.3-.44-3.11-.24-1.52-.52-3.82-.89-7.32-.11-1.1-.28-2.54-.36-3.2-.08-.66-.25-2.4-.37-3.85-.12-1.44-.3-3.18-.37-3.83-.13-1.06-.4-4.42-.74-9.53-.07-1.02-.19-3.31-.28-5.1-.09-1.78-.24-4.18-.31-5.32-.21-2.81-.43-10.87-.53-19.89-.1-7.23.09-20.5.38-26.68.38-8.36,1.15-20.21,1.46-22.93.09-.74.27-2.53.39-3.99.13-1.46.26-2.9.31-3.18.03-.29.19-1.72.35-3.19.32-2.98.69-5.92,1.25-9.97.58-4.19,1.48-9.95,1.7-10.8.07-.28.19-1.02.28-1.62.11-.61.27-1.54.38-2.08.12-.53.33-1.49.45-2.15.78-3.87,1.87-8.6,2.13-9.16.07-.17.31-.83.55-1.48,1.44-4.2,4.33-8.43,7.55-11.05,3.32-2.71,7.62-4.79,11.95-5.82.09-.01.78-.18,1.55-.35.77-.18,1.93-.46,2.59-.62,2.36-.56,6.51-1.4,8.95-1.82.69-.11,1.78-.32,2.44-.44.65-.12,1.65-.29,2.23-.37.57-.09,1.59-.25,2.29-.37,3.3-.56,11.14-1.55,16.41-2.06,1.26-.12,2.96-.28,3.78-.37,3.24-.32,7.83-.69,12.05-.94,9.1-.56,14.07-.8,20.85-.96,11.27-.28,29.42-.15,39.26.28,5.09.22,14.28.75,17.6,1.03.97.07,2.57.21,3.55.28.97.09,2.44.22,3.25.31.81.07,2.49.25,3.7.37,4.36.43,6.51.65,6.95.74.25.05,1.45.22,2.67.36,6.04.77,15.33,2.29,18.18,2.98.66.15,1.33.29,1.99.43,2.36.48,3.45.72,3.99.88.79.2,1.58.4,2.37.59,4.59,1.12,8.14,2.73,11.33,5.07,1.61,1.18,4.31,4,5.35,5.57.51.77.98,1.46,1.04,1.55.41.58,2.05,4.23,2.38,5.32.1.33.24.72.31.89.16.34.65,2.25,1.06,4.14.17.72.43,1.91.59,2.66,1.15,5.25,2.5,12.96,3.23,18.48.16,1.21.32,2.4.37,2.61.1.46.57,4.36.96,7.89.16,1.46.32,2.83.36,3.04.05.21.18,1.53.3,2.96.12,1.41.25,2.86.29,3.18.05.32.21,2.36.37,4.51.17,2.16.36,4.77.45,5.84.07,1.04.2,3.35.29,5.1.09,1.74.22,4.21.3,5.46.66,11.1.66,39.31,0,50.06Z"/>
      </g>
      <path class="cls-3" d="M234.88,231.02c-.07.96-.19,3.37-.3,5.32-.1,1.96-.22,4-.3,4.56-.06.56-.17,1.88-.24,2.96-.06,1.07-.18,2.42-.25,3.02-.06.58-.18,2.02-.28,3.19s-.22,2.45-.3,2.84c-.07.39-.2,1.48-.3,2.43-.18,1.92-.61,5.55-.71,6.09-.04.18-.17,1.1-.3,2-.59,4.14-1.24,8.2-1.35,8.46-.04.1-.14.65-.24,1.24-.38,2.31-1.42,7.19-1.97,9.26-.35,1.33-1.19,3.69-1.41,3.99-.05.06-.16.35-.28.63-.1.28-.38.81-.6,1.16-.22.35-.42.68-.42.73s-.2.34-.45.67c-.24.32-.52.72-.63.89-.32.48-1.64,1.9-2.58,2.77-.84.76-1.27,1.09-2.19,1.67-.2.12-.43.3-.52.38-.26.26-3.49,1.79-4.46,2.11-.39.14-.79.27-1.18.42-.32.14-2.09.59-4.14,1.05-.91.21-1.85.43-2.08.5-.54.14-3.97.83-6.56,1.3-2.37.43-6.51,1.07-9.53,1.45-.82.11-2.05.27-2.77.38-2.53.35-9.97,1.07-15.03,1.46-3.95.3-4.88.36-7.39.48-1.47.06-3.51.16-4.56.23-8.3.48-32.38.48-40.81,0-1.04-.06-3.09-.17-4.56-.23-1.47-.07-3.32-.18-4.14-.24-5.45-.39-6.58-.49-7.69-.6-.68-.07-2.33-.22-3.66-.35-3.71-.36-9.63-1.04-11.06-1.29-.39-.07-1.27-.2-1.96-.3-1.82-.26-4.72-.72-6.21-.99-2.59-.47-6.02-1.16-6.57-1.3-.22-.06-1.15-.29-2.07-.5-2.09-.47-3.83-.91-4.14-1.05-.13-.06-.45-.17-.71-.25-1.4-.42-4.64-1.96-5.11-2.41-.1-.1-.21-.18-.26-.18-.06,0-.29-.14-.52-.33-.22-.18-.57-.43-.75-.55-1.07-.76-2.99-2.73-3.67-3.73-.15-.22-.45-.65-.65-.95-.21-.3-.68-1.12-1.05-1.83-1.34-2.57-1.84-4.13-2.97-9.35-.33-1.49-.79-3.84-.99-5.03-.1-.55-.26-1.43-.35-1.95-.44-2.32-.84-4.85-1.19-7.45-.1-.72-.26-1.84-.35-2.49-.19-1.22-.42-3.06-.71-5.85-.09-.88-.22-2.03-.29-2.56-.06-.53-.2-1.92-.3-3.08-.1-1.15-.24-2.54-.3-3.06-.1-.85-.32-3.54-.59-7.63-.06-.82-.15-2.65-.22-4.08-.07-1.43-.19-3.34-.25-4.26-.17-2.25-.34-8.69-.43-15.91-.08-5.78.07-16.4.3-21.35.3-6.69.92-16.17,1.17-18.34.07-.59.22-2.02.31-3.19.1-1.17.21-2.32.25-2.54.02-.23.15-1.38.28-2.55.26-2.38.55-4.74,1-7.98.47-3.35,1.19-7.96,1.36-8.64.06-.22.15-.82.22-1.3.09-.49.22-1.24.3-1.66.1-.43.26-1.19.36-1.72.63-3.1,1.5-6.88,1.7-7.33.06-.14.25-.67.44-1.19,1.15-3.36,3.46-6.74,6.04-8.84,2.65-2.17,6.09-3.83,9.56-4.66.07,0,.63-.14,1.24-.28.62-.14,1.55-.37,2.07-.5,1.88-.45,5.2-1.12,7.16-1.46.55-.09,1.43-.26,1.95-.35.52-.1,1.32-.23,1.78-.3.46-.07,1.28-.2,1.83-.3,2.64-.45,8.91-1.24,13.13-1.65,1.01-.1,2.37-.22,3.02-.3,2.59-.26,6.26-.55,9.64-.75,7.28-.45,11.26-.64,16.68-.77,9.01-.22,23.54-.12,31.4.22,4.07.18,11.43.6,14.08.83.78.06,2.05.17,2.84.22.78.07,1.95.18,2.6.25.65.06,1.99.2,2.96.3,3.49.34,5.2.52,5.56.59.2.04,1.16.18,2.13.29,4.84.62,12.26,1.83,14.55,2.38.53.12,1.07.23,1.6.34,1.88.38,2.76.58,3.19.71.63.16,1.27.32,1.89.47,3.67.9,6.51,2.18,9.06,4.06,1.29.95,3.45,3.2,4.28,4.46.41.62.79,1.17.83,1.24.33.47,1.64,3.38,1.9,4.26.08.26.19.58.25.71.13.27.52,1.8.85,3.31.14.58.34,1.53.47,2.13.92,4.2,2,10.37,2.58,14.79.13.97.26,1.92.3,2.09.08.37.46,3.49.77,6.31.13,1.17.26,2.26.29,2.43.04.17.14,1.23.24,2.37.1,1.13.2,2.29.23,2.54.04.26.17,1.88.3,3.61.14,1.72.29,3.82.36,4.68.06.83.16,2.68.23,4.08.07,1.4.18,3.37.24,4.37.53,8.88.53,31.44,0,40.05Z"/>
      <g class="cls-2">
        <circle class="cls-1" cx="247.86" cy="77.14" r="77.14"/>
      </g>
      <g class="cls-4">
        <circle class="cls-1" cx="247.86" cy="77.14" r="62.3"/>
      </g>
      <circle class="cls-1" cx="247.86" cy="77.14" r="47.4"/>
    </g>
  </g>
</svg>